<svg xmlns="http://www.w3.org/2000/svg" xmlns:xlink="http://www.w3.org/1999/xlink" width="500" zoomAndPan="magnify" viewBox="0 0 375 187.499995" height="250" preserveAspectRatio="xMidYMid meet" version="1.0"><defs><g/><clipPath id="6cea1d9929"><path d="M 19.199219 78.59375 L 355.800781 78.59375 L 355.800781 96.167969 L 19.199219 96.167969 Z M 19.199219 78.59375 " clip-rule="nonzero"/></clipPath></defs><g fill="#ffffff" fill-opacity="1"><g transform="translate(39.154541, 138.804383)"><g><path d="M 99.480469 -71.929688 C 99.480469 -84.769531 99.980469 -90.753906 100.976562 -99.730469 L 72.179688 -99.730469 C 73.300781 -90.753906 73.675781 -84.769531 73.675781 -71.929688 L 73.675781 -51.359375 L 36.027344 -51.359375 L 36.027344 -71.929688 C 36.027344 -84.769531 36.402344 -90.753906 37.523438 -99.730469 L 8.726562 -99.730469 C 9.847656 -90.753906 10.222656 -84.769531 10.222656 -71.929688 L 10.222656 -27.800781 C 10.222656 -14.960938 9.847656 -8.976562 8.726562 0 L 37.523438 0 C 36.402344 -8.976562 36.027344 -14.960938 36.027344 -27.800781 L 36.027344 -48.367188 L 73.675781 -48.367188 L 73.675781 -27.800781 C 73.675781 -14.960938 73.300781 -8.976562 72.179688 0 L 100.976562 0 C 99.980469 -8.976562 99.480469 -14.960938 99.480469 -27.800781 Z M 99.480469 -71.929688 "/></g></g></g><g fill="#ffffff" fill-opacity="1"><g transform="translate(142.62174, 138.804383)"><g><path d="M 84.769531 -88.136719 C 86.765625 -92.625 87.636719 -94.867188 90.878906 -99.730469 L 85.890625 -99.730469 C 84.644531 -94.867188 83.898438 -93 81.53125 -88.011719 L 63.203125 -48.121094 L 43.257812 -88.011719 C 40.890625 -92.75 39.890625 -94.867188 38.519531 -99.730469 L 6.234375 -99.730469 C 9.847656 -95.742188 11.71875 -92.75 14.085938 -88.011719 L 37.523438 -40.890625 L 37.523438 -27.800781 C 37.523438 -14.960938 37.023438 -8.976562 36.027344 0 L 64.824219 0 C 63.703125 -8.976562 63.203125 -14.960938 63.203125 -27.800781 L 63.203125 -40.890625 Z M 84.769531 -88.136719 "/></g></g></g><g fill="#ffffff" fill-opacity="1"><g transform="translate(233.498308, 138.804383)"><g><path d="M 67.316406 -55.597656 C 82.027344 -58.34375 88.757812 -64.949219 88.757812 -77.042969 C 88.757812 -96.363281 72.429688 -99.730469 53.480469 -99.730469 L 8.726562 -99.730469 C 9.847656 -90.753906 10.222656 -84.769531 10.222656 -71.929688 L 10.222656 -27.800781 C 10.222656 -14.960938 9.847656 -8.976562 8.726562 0 L 55.722656 0 C 78.414062 0 96.113281 -6.359375 96.113281 -27.675781 C 96.113281 -44.878906 84.644531 -52.609375 67.316406 -55.597656 Z M 36.027344 -96.738281 L 43.132812 -96.738281 C 54.476562 -96.738281 62.828125 -90.628906 62.828125 -77.042969 C 62.828125 -63.828125 57.71875 -57.09375 43.757812 -57.09375 L 36.027344 -57.09375 Z M 44.378906 -2.992188 L 36.027344 -2.992188 L 36.027344 -54.105469 L 45.003906 -54.105469 C 55.847656 -54.105469 68.316406 -49.492188 68.316406 -27.300781 C 68.316406 -8.851562 57.34375 -2.992188 44.378906 -2.992188 Z M 44.378906 -2.992188 "/></g></g></g><g clip-path="url(#6cea1d9929)"><path fill="#302f3b" d="M 19.199219 78.59375 L 355.800781 78.59375 L 355.800781 96.125 L 19.199219 96.125 Z M 19.199219 78.59375 " fill-opacity="1" fill-rule="nonzero"/></g><g fill="#ffffff" fill-opacity="1"><g transform="translate(31.305758, 91.126181)"><g><path d="M 8.40625 0 L 7.3125 0 L 7.296875 -5.28125 L 5.0625 -0.734375 L 4.28125 -0.734375 L 2.046875 -5.28125 L 2.046875 0 L 0.9375 0 L 0.9375 -7.078125 L 2.34375 -7.078125 L 4.6875 -2.375 L 7 -7.078125 L 8.40625 -7.078125 Z M 8.40625 0 "/></g></g></g><g fill="#ffffff" fill-opacity="1"><g transform="translate(48.731492, 91.126181)"><g><path d="M 5.984375 -6 L 2.125 -6 L 2.125 -4.09375 L 5.578125 -4.09375 L 5.578125 -3.015625 L 2.125 -3.015625 L 2.125 -1.078125 L 6.109375 -1.078125 L 6.109375 0 L 0.9375 0 L 0.9375 -7.078125 L 5.984375 -7.078125 Z M 5.984375 -6 "/></g></g></g><g fill="#ffffff" fill-opacity="1"><g transform="translate(63.440857, 91.126181)"><g><path d="M 0.9375 -7.078125 L 3.828125 -7.078125 C 4.890625 -7.078125 5.765625 -6.742188 6.453125 -6.078125 C 7.140625 -5.410156 7.484375 -4.5625 7.484375 -3.53125 C 7.484375 -2.507812 7.132812 -1.664062 6.4375 -1 C 5.75 -0.332031 4.867188 0 3.796875 0 L 0.9375 0 Z M 2.125 -6 L 2.125 -1.078125 L 3.859375 -1.078125 C 4.554688 -1.078125 5.132812 -1.304688 5.59375 -1.765625 C 6.050781 -2.222656 6.28125 -2.804688 6.28125 -3.515625 C 6.28125 -4.234375 6.039062 -4.828125 5.5625 -5.296875 C 5.09375 -5.765625 4.507812 -6 3.8125 -6 Z M 2.125 -6 "/></g></g></g><g fill="#ffffff" fill-opacity="1"><g transform="translate(79.351885, 91.126181)"><g><path d="M 3.828125 -2.359375 L 3.828125 0 L 2.65625 0 L 2.65625 -2.3125 L 0.015625 -7.078125 L 1.21875 -7.078125 L 3.234375 -3.625 L 5.21875 -7.078125 L 6.421875 -7.078125 Z M 3.828125 -2.359375 "/></g></g></g><g fill="#ffffff" fill-opacity="1"><g transform="translate(93.869385, 91.126181)"><g><path d="M 5.5 -1.59375 L 1.9375 -1.59375 L 1.25 0 L 0.015625 0 L 3.140625 -7.078125 L 4.359375 -7.078125 L 7.453125 0 L 6.171875 0 Z M 5.046875 -2.65625 L 3.703125 -5.796875 L 2.375 -2.65625 Z M 5.046875 -2.65625 "/></g></g></g><g fill="#ffffff" fill-opacity="1"><g transform="translate(109.406788, 91.126181)"><g/></g></g><g fill="#ffffff" fill-opacity="1"><g transform="translate(120.097119, 91.126181)"><g><path d="M 4.375 0.03125 L 4.140625 0.5 C 4.359375 0.539062 4.53125 0.628906 4.65625 0.765625 C 4.789062 0.910156 4.859375 1.085938 4.859375 1.296875 C 4.859375 1.585938 4.753906 1.820312 4.546875 2 C 4.335938 2.175781 4.082031 2.265625 3.78125 2.265625 C 3.445312 2.265625 3.148438 2.171875 2.890625 1.984375 L 3.109375 1.4375 C 3.285156 1.570312 3.484375 1.640625 3.703125 1.640625 C 3.835938 1.640625 3.945312 1.597656 4.03125 1.515625 C 4.125 1.429688 4.171875 1.332031 4.171875 1.21875 C 4.171875 1.113281 4.125 1.023438 4.03125 0.953125 C 3.945312 0.878906 3.832031 0.84375 3.6875 0.84375 C 3.570312 0.84375 3.453125 0.859375 3.328125 0.890625 L 3.6875 0.046875 C 2.726562 -0.0351562 1.929688 -0.414062 1.296875 -1.09375 C 0.660156 -1.769531 0.34375 -2.585938 0.34375 -3.546875 C 0.34375 -4.554688 0.703125 -5.398438 1.421875 -6.078125 C 2.140625 -6.765625 3.019531 -7.109375 4.0625 -7.109375 C 4.5625 -7.109375 5.046875 -7.007812 5.515625 -6.8125 C 5.992188 -6.625 6.40625 -6.359375 6.75 -6.015625 L 6.0625 -5.140625 C 5.800781 -5.421875 5.492188 -5.640625 5.140625 -5.796875 C 4.796875 -5.960938 4.441406 -6.046875 4.078125 -6.046875 C 3.367188 -6.046875 2.769531 -5.800781 2.28125 -5.3125 C 1.800781 -4.832031 1.5625 -4.25 1.5625 -3.5625 C 1.5625 -2.851562 1.800781 -2.257812 2.28125 -1.78125 C 2.769531 -1.300781 3.367188 -1.0625 4.078125 -1.0625 C 4.816406 -1.0625 5.476562 -1.34375 6.0625 -1.90625 L 6.765625 -1.109375 C 6.078125 -0.441406 5.28125 -0.0625 4.375 0.03125 Z M 4.375 0.03125 "/></g></g></g><g fill="#ffffff" fill-opacity="1"><g transform="translate(135.220508, 91.126181)"><g><path d="M 2.703125 -9.125 C 2.828125 -9.25 2.976562 -9.3125 3.15625 -9.3125 C 3.332031 -9.3125 3.476562 -9.25 3.59375 -9.125 C 3.707031 -9.007812 3.765625 -8.851562 3.765625 -8.65625 C 3.765625 -8.476562 3.707031 -8.328125 3.59375 -8.203125 C 3.476562 -8.085938 3.332031 -8.03125 3.15625 -8.03125 C 2.976562 -8.03125 2.828125 -8.085938 2.703125 -8.203125 C 2.585938 -8.328125 2.53125 -8.476562 2.53125 -8.65625 C 2.53125 -8.851562 2.585938 -9.007812 2.703125 -9.125 Z M 4.5 -9.125 C 4.625 -9.25 4.769531 -9.3125 4.9375 -9.3125 C 5.113281 -9.3125 5.257812 -9.25 5.375 -9.125 C 5.488281 -9.007812 5.546875 -8.851562 5.546875 -8.65625 C 5.546875 -8.476562 5.488281 -8.328125 5.375 -8.203125 C 5.257812 -8.085938 5.113281 -8.03125 4.9375 -8.03125 C 4.769531 -8.03125 4.625 -8.085938 4.5 -8.203125 C 4.382812 -8.328125 4.328125 -8.476562 4.328125 -8.65625 C 4.328125 -8.851562 4.382812 -9.007812 4.5 -9.125 Z M 1.421875 -6.078125 C 2.140625 -6.765625 3.03125 -7.109375 4.09375 -7.109375 C 5.15625 -7.109375 6.046875 -6.765625 6.765625 -6.078125 C 7.484375 -5.398438 7.84375 -4.550781 7.84375 -3.53125 C 7.84375 -2.519531 7.484375 -1.671875 6.765625 -0.984375 C 6.046875 -0.296875 5.15625 0.046875 4.09375 0.046875 C 3.03125 0.046875 2.140625 -0.296875 1.421875 -0.984375 C 0.703125 -1.671875 0.34375 -2.519531 0.34375 -3.53125 C 0.34375 -4.550781 0.703125 -5.398438 1.421875 -6.078125 Z M 4.109375 -6.03125 C 3.398438 -6.03125 2.796875 -5.789062 2.296875 -5.3125 C 1.804688 -4.832031 1.5625 -4.238281 1.5625 -3.53125 C 1.5625 -2.832031 1.8125 -2.238281 2.3125 -1.75 C 2.8125 -1.257812 3.40625 -1.015625 4.09375 -1.015625 C 4.789062 -1.015625 5.382812 -1.257812 5.875 -1.75 C 6.375 -2.238281 6.625 -2.832031 6.625 -3.53125 C 6.625 -4.238281 6.375 -4.832031 5.875 -5.3125 C 5.382812 -5.789062 4.796875 -6.03125 4.109375 -6.03125 Z M 4.109375 -6.03125 "/></g></g></g><g fill="#ffffff" fill-opacity="1"><g transform="translate(151.484965, 91.126181)"><g><path d="M 6.296875 -6.21875 L 1.984375 -1.078125 L 6.34375 -1.078125 L 6.34375 0 L 0.375 0 L 0.375 -0.859375 L 4.6875 -6 L 0.5 -6 L 0.5 -7.078125 L 6.296875 -7.078125 Z M 6.296875 -6.21875 "/></g></g></g><g fill="#ffffff" fill-opacity="1"><g transform="translate(166.295301, 91.126181)"><g><path d="M 2.53125 -9.125 C 2.644531 -9.25 2.789062 -9.3125 2.96875 -9.3125 C 3.144531 -9.3125 3.289062 -9.25 3.40625 -9.125 C 3.519531 -9.007812 3.578125 -8.851562 3.578125 -8.65625 C 3.578125 -8.476562 3.519531 -8.328125 3.40625 -8.203125 C 3.289062 -8.085938 3.144531 -8.03125 2.96875 -8.03125 C 2.789062 -8.03125 2.644531 -8.085938 2.53125 -8.203125 C 2.414062 -8.328125 2.359375 -8.476562 2.359375 -8.65625 C 2.359375 -8.851562 2.414062 -9.007812 2.53125 -9.125 Z M 4.3125 -9.125 C 4.4375 -9.25 4.585938 -9.3125 4.765625 -9.3125 C 4.941406 -9.3125 5.085938 -9.25 5.203125 -9.125 C 5.316406 -9.007812 5.375 -8.851562 5.375 -8.65625 C 5.375 -8.476562 5.316406 -8.328125 5.203125 -8.203125 C 5.085938 -8.085938 4.941406 -8.03125 4.765625 -8.03125 C 4.585938 -8.03125 4.4375 -8.085938 4.3125 -8.203125 C 4.195312 -8.328125 4.140625 -8.476562 4.140625 -8.65625 C 4.140625 -8.851562 4.195312 -9.007812 4.3125 -9.125 Z M 6.9375 -7.078125 L 6.9375 -2.9375 C 6.9375 -2.007812 6.664062 -1.28125 6.125 -0.75 C 5.582031 -0.21875 4.832031 0.046875 3.875 0.046875 C 2.914062 0.046875 2.160156 -0.21875 1.609375 -0.75 C 1.054688 -1.28125 0.78125 -2.007812 0.78125 -2.9375 L 0.78125 -7.078125 L 1.984375 -7.078125 L 1.984375 -2.9375 C 1.984375 -2.34375 2.148438 -1.875 2.484375 -1.53125 C 2.828125 -1.1875 3.289062 -1.015625 3.875 -1.015625 C 4.457031 -1.015625 4.914062 -1.179688 5.25 -1.515625 C 5.582031 -1.859375 5.75 -2.332031 5.75 -2.9375 L 5.75 -7.078125 Z M 6.9375 -7.078125 "/></g></g></g><g fill="#ffffff" fill-opacity="1"><g transform="translate(182.095245, 91.126181)"><g><path d="M 8.40625 0 L 7.3125 0 L 7.296875 -5.28125 L 5.0625 -0.734375 L 4.28125 -0.734375 L 2.046875 -5.28125 L 2.046875 0 L 0.9375 0 L 0.9375 -7.078125 L 2.34375 -7.078125 L 4.6875 -2.375 L 7 -7.078125 L 8.40625 -7.078125 Z M 8.40625 0 "/></g></g></g><g fill="#ffffff" fill-opacity="1"><g transform="translate(199.520974, 91.126181)"><g/></g></g><g fill="#ffffff" fill-opacity="1"><g transform="translate(210.2113, 91.126181)"><g><path d="M 1.421875 -6.078125 C 2.140625 -6.765625 3.03125 -7.109375 4.09375 -7.109375 C 5.15625 -7.109375 6.046875 -6.765625 6.765625 -6.078125 C 7.484375 -5.398438 7.84375 -4.550781 7.84375 -3.53125 C 7.84375 -2.519531 7.484375 -1.671875 6.765625 -0.984375 C 6.046875 -0.296875 5.15625 0.046875 4.09375 0.046875 C 3.03125 0.046875 2.140625 -0.296875 1.421875 -0.984375 C 0.703125 -1.671875 0.34375 -2.519531 0.34375 -3.53125 C 0.34375 -4.550781 0.703125 -5.398438 1.421875 -6.078125 Z M 4.109375 -6.03125 C 3.398438 -6.03125 2.796875 -5.789062 2.296875 -5.3125 C 1.804688 -4.832031 1.5625 -4.238281 1.5625 -3.53125 C 1.5625 -2.832031 1.8125 -2.238281 2.3125 -1.75 C 2.8125 -1.257812 3.40625 -1.015625 4.09375 -1.015625 C 4.789062 -1.015625 5.382812 -1.257812 5.875 -1.75 C 6.375 -2.238281 6.625 -2.832031 6.625 -3.53125 C 6.625 -4.238281 6.375 -4.832031 5.875 -5.3125 C 5.382812 -5.789062 4.796875 -6.03125 4.109375 -6.03125 Z M 4.109375 -6.03125 "/></g></g></g><g fill="#ffffff" fill-opacity="1"><g transform="translate(226.475757, 91.126181)"><g><path d="M 5.421875 0 L 4.125 -2.140625 C 4.0625 -2.140625 3.953125 -2.140625 3.796875 -2.140625 L 2.125 -2.140625 L 2.125 0 L 0.9375 0 L 0.9375 -7.078125 L 3.796875 -7.078125 C 4.703125 -7.078125 5.40625 -6.863281 5.90625 -6.4375 C 6.40625 -6.019531 6.65625 -5.425781 6.65625 -4.65625 C 6.65625 -4.09375 6.523438 -3.613281 6.265625 -3.21875 C 6.015625 -2.832031 5.65625 -2.546875 5.1875 -2.359375 L 6.765625 0 Z M 2.125 -3.203125 L 3.796875 -3.203125 C 4.941406 -3.203125 5.515625 -3.675781 5.515625 -4.625 C 5.515625 -5.539062 4.941406 -6 3.796875 -6 L 2.125 -6 Z M 2.125 -3.203125 "/></g></g></g><g fill="#ffffff" fill-opacity="1"><g transform="translate(241.861684, 91.126181)"><g><path d="M 5.765625 -6 L 3.515625 -6 L 3.515625 0 L 2.328125 0 L 2.328125 -6 L 0.09375 -6 L 0.09375 -7.078125 L 5.765625 -7.078125 Z M 5.765625 -6 "/></g></g></g><g fill="#ffffff" fill-opacity="1"><g transform="translate(255.793487, 91.126181)"><g><path d="M 5.5 -1.59375 L 1.9375 -1.59375 L 1.25 0 L 0.015625 0 L 3.140625 -7.078125 L 4.359375 -7.078125 L 7.453125 0 L 6.171875 0 Z M 5.046875 -2.65625 L 3.703125 -5.796875 L 2.375 -2.65625 Z M 5.046875 -2.65625 "/></g></g></g><g fill="#ffffff" fill-opacity="1"><g transform="translate(271.330896, 91.126181)"><g><path d="M 4.90625 -8.21875 C 4.644531 -7.957031 4.3125 -7.828125 3.90625 -7.828125 C 3.507812 -7.828125 3.175781 -7.957031 2.90625 -8.21875 C 2.632812 -8.488281 2.492188 -8.835938 2.484375 -9.265625 L 3.28125 -9.265625 C 3.289062 -9.066406 3.351562 -8.90625 3.46875 -8.78125 C 3.59375 -8.664062 3.738281 -8.609375 3.90625 -8.609375 C 4.082031 -8.609375 4.226562 -8.664062 4.34375 -8.78125 C 4.46875 -8.90625 4.535156 -9.066406 4.546875 -9.265625 L 5.34375 -9.265625 C 5.320312 -8.835938 5.175781 -8.488281 4.90625 -8.21875 Z M 5.765625 -3.484375 L 6.8125 -3.484375 L 6.8125 -0.875 C 6.445312 -0.59375 6.015625 -0.367188 5.515625 -0.203125 C 5.023438 -0.0351562 4.539062 0.046875 4.0625 0.046875 C 3.019531 0.046875 2.140625 -0.296875 1.421875 -0.984375 C 0.703125 -1.671875 0.34375 -2.519531 0.34375 -3.53125 C 0.34375 -4.550781 0.707031 -5.398438 1.4375 -6.078125 C 2.164062 -6.765625 3.066406 -7.109375 4.140625 -7.109375 C 4.640625 -7.109375 5.128906 -7.019531 5.609375 -6.84375 C 6.085938 -6.664062 6.503906 -6.421875 6.859375 -6.109375 L 6.171875 -5.234375 C 5.597656 -5.773438 4.921875 -6.046875 4.140625 -6.046875 C 3.410156 -6.046875 2.796875 -5.800781 2.296875 -5.3125 C 1.804688 -4.832031 1.5625 -4.238281 1.5625 -3.53125 C 1.5625 -2.832031 1.8125 -2.238281 2.3125 -1.75 C 2.8125 -1.257812 3.421875 -1.015625 4.140625 -1.015625 C 4.691406 -1.015625 5.234375 -1.175781 5.765625 -1.5 Z M 5.765625 -3.484375 "/></g></g></g><g fill="#ffffff" fill-opacity="1"><g transform="translate(286.979381, 91.126181)"><g><path d="M 2.125 0 L 0.9375 0 L 0.9375 -7.078125 L 2.125 -7.078125 Z M 2.125 0 "/></g></g></g><g fill="#ffffff" fill-opacity="1"><g transform="translate(298.11404, 91.126181)"><g><path d="M 7.0625 0 L 5.890625 0 L 2.125 -5.078125 L 2.125 0 L 0.9375 0 L 0.9375 -7.078125 L 2.109375 -7.078125 L 5.890625 -1.984375 L 5.890625 -7.078125 L 7.0625 -7.078125 Z M 7.0625 0 "/></g></g></g><g fill="#ffffff" fill-opacity="1"><g transform="translate(314.196747, 91.126181)"><g><path d="M 2.125 0 L 0.9375 0 L 0.9375 -7.078125 L 2.125 -7.078125 Z M 2.125 0 "/></g></g></g><g fill="#ffffff" fill-opacity="1"><g transform="translate(325.331406, 91.126181)"><g><path d="M 6.296875 -6.21875 L 1.984375 -1.078125 L 6.34375 -1.078125 L 6.34375 0 L 0.375 0 L 0.375 -0.859375 L 4.6875 -6 L 0.5 -6 L 0.5 -7.078125 L 6.296875 -7.078125 Z M 6.296875 -6.21875 "/></g></g></g></svg>