<svg xmlns="http://www.w3.org/2000/svg" xmlns:xlink="http://www.w3.org/1999/xlink" width="400" zoomAndPan="magnify" viewBox="0 0 300 149.999998" height="200" preserveAspectRatio="xMidYMid meet" version="1.0"><defs><g/><clipPath id="44afdfd873"><path d="M 15 60.660156 L 285 60.660156 L 285 75 L 15 75 Z M 15 60.660156 " clip-rule="nonzero"/></clipPath></defs><g fill="#231f20" fill-opacity="1"><g transform="translate(23.73197, 113.439351)"><g><path d="M 83.726562 -66.121094 C 83.726562 -76.617188 84.0625 -81.695312 84.964844 -90.269531 L 63.527344 -90.269531 C 64.429688 -81.695312 64.769531 -76.617188 64.769531 -66.121094 L 64.769531 -46.375 L 28.097656 -46.375 L 28.097656 -66.121094 C 28.097656 -76.617188 28.433594 -81.695312 29.335938 -90.269531 L 7.898438 -90.269531 C 8.800781 -81.695312 9.140625 -76.617188 9.140625 -66.121094 L 9.140625 -24.148438 C 9.140625 -13.652344 8.800781 -8.574219 7.898438 0 L 29.335938 0 C 28.433594 -8.574219 28.097656 -13.652344 28.097656 -24.148438 L 28.097656 -43.894531 L 64.769531 -43.894531 L 64.769531 -24.148438 C 64.769531 -13.652344 64.429688 -8.574219 63.527344 0 L 84.964844 0 C 84.0625 -8.574219 83.726562 -13.652344 83.726562 -24.148438 Z M 83.726562 -66.121094 "/></g></g></g><g fill="#231f20" fill-opacity="1"><g transform="translate(110.952623, 113.439351)"><g><path d="M 73.003906 -79.777344 C 74.921875 -83.835938 75.828125 -85.867188 78.761719 -90.269531 L 74.8125 -90.269531 C 73.34375 -85.867188 72.667969 -84.175781 70.410156 -79.664062 L 52.921875 -43.105469 L 34.300781 -79.664062 C 32.046875 -83.949219 31.144531 -85.867188 29.789062 -90.269531 L 5.640625 -90.269531 C 8.914062 -86.546875 10.492188 -83.949219 12.75 -79.664062 L 34.078125 -37.6875 L 34.078125 -24.148438 C 34.078125 -13.652344 33.738281 -8.574219 32.835938 0 L 54.273438 0 C 53.371094 -8.574219 53.035156 -13.652344 53.035156 -24.148438 L 53.035156 -37.6875 Z M 73.003906 -79.777344 "/></g></g></g><g fill="#231f20" fill-opacity="1"><g transform="translate(189.710682, 113.439351)"><g><path d="M 54.953125 -50.550781 C 68.492188 -52.921875 74.472656 -59.015625 74.472656 -69.847656 C 74.472656 -87.335938 59.238281 -90.269531 42.992188 -90.269531 L 7.898438 -90.269531 C 8.800781 -81.695312 9.140625 -76.617188 9.140625 -66.121094 L 9.140625 -24.148438 C 9.140625 -13.652344 8.800781 -8.574219 7.898438 0 L 44.796875 0 C 64.769531 0 80.902344 -5.753906 80.902344 -25.050781 C 80.902344 -40.960938 69.957031 -47.957031 54.953125 -50.550781 Z M 28.097656 -87.898438 L 35.542969 -87.898438 C 45.699219 -87.898438 55.175781 -83.046875 55.175781 -69.847656 C 55.175781 -58.109375 50.210938 -51.792969 36.332031 -51.792969 L 28.097656 -51.792969 Z M 36.671875 -2.371094 L 28.097656 -2.371094 L 28.097656 -49.421875 L 37.460938 -49.421875 C 47.277344 -49.421875 60.367188 -45.136719 60.367188 -24.824219 C 60.367188 -8.011719 49.421875 -2.371094 36.671875 -2.371094 Z M 36.671875 -2.371094 "/></g></g></g><g clip-path="url(#44afdfd873)"><path fill="#ffffff" d="M 15 60.660156 L 285 60.660156 L 285 74.722656 L 15 74.722656 Z M 15 60.660156 " fill-opacity="1" fill-rule="nonzero"/></g><g fill="#231f20" fill-opacity="1"><g transform="translate(30.918799, 70.498226)"><g><path d="M 6.65625 0 L 5.78125 0 L 5.78125 -4.1875 L 4.015625 -0.578125 L 3.390625 -0.578125 L 1.625 -4.1875 L 1.625 0 L 0.734375 0 L 0.734375 -5.59375 L 1.859375 -5.59375 L 3.703125 -1.875 L 5.546875 -5.59375 L 6.65625 -5.59375 Z M 6.65625 0 "/></g></g></g><g fill="#231f20" fill-opacity="1"><g transform="translate(44.718896, 70.498226)"><g><path d="M 4.734375 -4.75 L 1.6875 -4.75 L 1.6875 -3.234375 L 4.421875 -3.234375 L 4.421875 -2.390625 L 1.6875 -2.390625 L 1.6875 -0.84375 L 4.828125 -0.84375 L 4.828125 0 L 0.734375 0 L 0.734375 -5.59375 L 4.734375 -5.59375 Z M 4.734375 -4.75 "/></g></g></g><g fill="#231f20" fill-opacity="1"><g transform="translate(56.366968, 70.498226)"><g><path d="M 0.734375 -5.59375 L 3.03125 -5.59375 C 3.863281 -5.59375 4.550781 -5.328125 5.09375 -4.796875 C 5.644531 -4.273438 5.921875 -3.609375 5.921875 -2.796875 C 5.921875 -1.984375 5.644531 -1.3125 5.09375 -0.78125 C 4.550781 -0.257812 3.859375 0 3.015625 0 L 0.734375 0 Z M 1.6875 -4.75 L 1.6875 -0.84375 L 3.0625 -0.84375 C 3.601562 -0.84375 4.054688 -1.023438 4.421875 -1.390625 C 4.785156 -1.753906 4.96875 -2.21875 4.96875 -2.78125 C 4.96875 -3.351562 4.78125 -3.820312 4.40625 -4.1875 C 4.03125 -4.5625 3.566406 -4.75 3.015625 -4.75 Z M 1.6875 -4.75 "/></g></g></g><g fill="#231f20" fill-opacity="1"><g transform="translate(68.96705, 70.498226)"><g><path d="M 3.03125 -1.859375 L 3.03125 0 L 2.09375 0 L 2.09375 -1.828125 L 0.015625 -5.59375 L 0.953125 -5.59375 L 2.5625 -2.875 L 4.125 -5.59375 L 5.09375 -5.59375 Z M 3.03125 -1.859375 "/></g></g></g><g fill="#231f20" fill-opacity="1"><g transform="translate(80.463123, 70.498226)"><g><path d="M 4.359375 -1.265625 L 1.53125 -1.265625 L 0.984375 0 L 0.015625 0 L 2.484375 -5.59375 L 3.453125 -5.59375 L 5.890625 0 L 4.890625 0 Z M 3.984375 -2.109375 L 2.9375 -4.59375 L 1.875 -2.109375 Z M 3.984375 -2.109375 "/></g></g></g><g fill="#231f20" fill-opacity="1"><g transform="translate(92.767201, 70.498226)"><g/></g></g><g fill="#231f20" fill-opacity="1"><g transform="translate(101.231241, 70.498226)"><g><path d="M 3.453125 0.03125 L 3.28125 0.40625 C 3.445312 0.4375 3.582031 0.503906 3.6875 0.609375 C 3.789062 0.722656 3.84375 0.863281 3.84375 1.03125 C 3.84375 1.257812 3.757812 1.441406 3.59375 1.578125 C 3.4375 1.722656 3.234375 1.796875 2.984375 1.796875 C 2.722656 1.796875 2.488281 1.71875 2.28125 1.5625 L 2.46875 1.140625 C 2.601562 1.242188 2.753906 1.296875 2.921875 1.296875 C 3.035156 1.296875 3.125 1.257812 3.1875 1.1875 C 3.257812 1.125 3.296875 1.050781 3.296875 0.96875 C 3.296875 0.882812 3.257812 0.8125 3.1875 0.75 C 3.125 0.6875 3.03125 0.65625 2.90625 0.65625 C 2.820312 0.65625 2.726562 0.671875 2.625 0.703125 L 2.921875 0.03125 C 2.160156 -0.03125 1.523438 -0.328125 1.015625 -0.859375 C 0.515625 -1.398438 0.265625 -2.050781 0.265625 -2.8125 C 0.265625 -3.601562 0.546875 -4.269531 1.109375 -4.8125 C 1.679688 -5.351562 2.382812 -5.625 3.21875 -5.625 C 3.613281 -5.625 4 -5.546875 4.375 -5.390625 C 4.75 -5.242188 5.070312 -5.035156 5.34375 -4.765625 L 4.796875 -4.078125 C 4.585938 -4.296875 4.34375 -4.46875 4.0625 -4.59375 C 3.789062 -4.71875 3.515625 -4.78125 3.234375 -4.78125 C 2.671875 -4.78125 2.195312 -4.585938 1.8125 -4.203125 C 1.425781 -3.828125 1.234375 -3.363281 1.234375 -2.8125 C 1.234375 -2.257812 1.425781 -1.789062 1.8125 -1.40625 C 2.195312 -1.03125 2.671875 -0.84375 3.234375 -0.84375 C 3.816406 -0.84375 4.335938 -1.0625 4.796875 -1.5 L 5.359375 -0.875 C 4.816406 -0.351562 4.179688 -0.0507812 3.453125 0.03125 Z M 3.453125 0.03125 "/></g></g></g><g fill="#231f20" fill-opacity="1"><g transform="translate(113.207316, 70.498226)"><g><path d="M 2.140625 -7.21875 C 2.234375 -7.320312 2.347656 -7.375 2.484375 -7.375 C 2.628906 -7.375 2.742188 -7.320312 2.828125 -7.21875 C 2.921875 -7.125 2.96875 -7.003906 2.96875 -6.859375 C 2.96875 -6.710938 2.921875 -6.59375 2.828125 -6.5 C 2.742188 -6.40625 2.628906 -6.359375 2.484375 -6.359375 C 2.347656 -6.359375 2.234375 -6.40625 2.140625 -6.5 C 2.054688 -6.59375 2.015625 -6.710938 2.015625 -6.859375 C 2.015625 -7.003906 2.054688 -7.125 2.140625 -7.21875 Z M 3.5625 -7.21875 C 3.65625 -7.320312 3.769531 -7.375 3.90625 -7.375 C 4.050781 -7.375 4.164062 -7.320312 4.25 -7.21875 C 4.34375 -7.125 4.390625 -7.003906 4.390625 -6.859375 C 4.390625 -6.710938 4.34375 -6.59375 4.25 -6.5 C 4.164062 -6.40625 4.050781 -6.359375 3.90625 -6.359375 C 3.769531 -6.359375 3.65625 -6.40625 3.5625 -6.5 C 3.46875 -6.59375 3.421875 -6.710938 3.421875 -6.859375 C 3.421875 -7.003906 3.46875 -7.125 3.5625 -7.21875 Z M 1.125 -4.8125 C 1.695312 -5.351562 2.398438 -5.625 3.234375 -5.625 C 4.078125 -5.625 4.78125 -5.351562 5.34375 -4.8125 C 5.914062 -4.269531 6.203125 -3.597656 6.203125 -2.796875 C 6.203125 -1.992188 5.914062 -1.316406 5.34375 -0.765625 C 4.78125 -0.222656 4.078125 0.046875 3.234375 0.046875 C 2.398438 0.046875 1.695312 -0.222656 1.125 -0.765625 C 0.550781 -1.316406 0.265625 -1.992188 0.265625 -2.796875 C 0.265625 -3.597656 0.550781 -4.269531 1.125 -4.8125 Z M 3.25 -4.78125 C 2.695312 -4.78125 2.222656 -4.585938 1.828125 -4.203125 C 1.429688 -3.816406 1.234375 -3.347656 1.234375 -2.796875 C 1.234375 -2.242188 1.429688 -1.773438 1.828125 -1.390625 C 2.222656 -1.003906 2.695312 -0.8125 3.25 -0.8125 C 3.800781 -0.8125 4.269531 -1.003906 4.65625 -1.390625 C 5.039062 -1.773438 5.234375 -2.242188 5.234375 -2.796875 C 5.234375 -3.347656 5.039062 -3.816406 4.65625 -4.203125 C 4.269531 -4.585938 3.800781 -4.78125 3.25 -4.78125 Z M 3.25 -4.78125 "/></g></g></g><g fill="#231f20" fill-opacity="1"><g transform="translate(126.0874, 70.498226)"><g><path d="M 4.984375 -4.921875 L 1.578125 -0.84375 L 5.03125 -0.84375 L 5.03125 0 L 0.296875 0 L 0.296875 -0.6875 L 3.71875 -4.75 L 0.40625 -4.75 L 0.40625 -5.59375 L 4.984375 -5.59375 Z M 4.984375 -4.921875 "/></g></g></g><g fill="#231f20" fill-opacity="1"><g transform="translate(137.815473, 70.498226)"><g><path d="M 2 -7.21875 C 2.09375 -7.320312 2.207031 -7.375 2.34375 -7.375 C 2.488281 -7.375 2.601562 -7.320312 2.6875 -7.21875 C 2.78125 -7.125 2.828125 -7.003906 2.828125 -6.859375 C 2.828125 -6.710938 2.78125 -6.59375 2.6875 -6.5 C 2.601562 -6.40625 2.488281 -6.359375 2.34375 -6.359375 C 2.207031 -6.359375 2.09375 -6.40625 2 -6.5 C 1.90625 -6.59375 1.859375 -6.710938 1.859375 -6.859375 C 1.859375 -7.003906 1.90625 -7.125 2 -7.21875 Z M 3.421875 -7.21875 C 3.515625 -7.320312 3.628906 -7.375 3.765625 -7.375 C 3.898438 -7.375 4.015625 -7.320312 4.109375 -7.21875 C 4.203125 -7.125 4.25 -7.003906 4.25 -6.859375 C 4.25 -6.710938 4.203125 -6.59375 4.109375 -6.5 C 4.015625 -6.40625 3.898438 -6.359375 3.765625 -6.359375 C 3.628906 -6.359375 3.515625 -6.40625 3.421875 -6.5 C 3.328125 -6.59375 3.28125 -6.710938 3.28125 -6.859375 C 3.28125 -7.003906 3.328125 -7.125 3.421875 -7.21875 Z M 5.5 -5.59375 L 5.5 -2.3125 C 5.5 -1.582031 5.28125 -1.003906 4.84375 -0.578125 C 4.414062 -0.160156 3.820312 0.046875 3.0625 0.046875 C 2.300781 0.046875 1.703125 -0.160156 1.265625 -0.578125 C 0.835938 -1.003906 0.625 -1.582031 0.625 -2.3125 L 0.625 -5.59375 L 1.5625 -5.59375 L 1.5625 -2.3125 C 1.5625 -1.84375 1.695312 -1.472656 1.96875 -1.203125 C 2.238281 -0.941406 2.609375 -0.8125 3.078125 -0.8125 C 3.535156 -0.8125 3.894531 -0.941406 4.15625 -1.203125 C 4.414062 -1.472656 4.546875 -1.84375 4.546875 -2.3125 L 4.546875 -5.59375 Z M 5.5 -5.59375 "/></g></g></g><g fill="#231f20" fill-opacity="1"><g transform="translate(150.327554, 70.498226)"><g><path d="M 6.65625 0 L 5.78125 0 L 5.78125 -4.1875 L 4.015625 -0.578125 L 3.390625 -0.578125 L 1.625 -4.1875 L 1.625 0 L 0.734375 0 L 0.734375 -5.59375 L 1.859375 -5.59375 L 3.703125 -1.875 L 5.546875 -5.59375 L 6.65625 -5.59375 Z M 6.65625 0 "/></g></g></g><g fill="#231f20" fill-opacity="1"><g transform="translate(164.127655, 70.498226)"><g/></g></g><g fill="#231f20" fill-opacity="1"><g transform="translate(172.5917, 70.498226)"><g><path d="M 1.125 -4.8125 C 1.695312 -5.351562 2.398438 -5.625 3.234375 -5.625 C 4.078125 -5.625 4.78125 -5.351562 5.34375 -4.8125 C 5.914062 -4.269531 6.203125 -3.597656 6.203125 -2.796875 C 6.203125 -1.992188 5.914062 -1.316406 5.34375 -0.765625 C 4.78125 -0.222656 4.078125 0.046875 3.234375 0.046875 C 2.398438 0.046875 1.695312 -0.222656 1.125 -0.765625 C 0.550781 -1.316406 0.265625 -1.992188 0.265625 -2.796875 C 0.265625 -3.597656 0.550781 -4.269531 1.125 -4.8125 Z M 3.25 -4.78125 C 2.695312 -4.78125 2.222656 -4.585938 1.828125 -4.203125 C 1.429688 -3.816406 1.234375 -3.347656 1.234375 -2.796875 C 1.234375 -2.242188 1.429688 -1.773438 1.828125 -1.390625 C 2.222656 -1.003906 2.695312 -0.8125 3.25 -0.8125 C 3.800781 -0.8125 4.269531 -1.003906 4.65625 -1.390625 C 5.039062 -1.773438 5.234375 -2.242188 5.234375 -2.796875 C 5.234375 -3.347656 5.039062 -3.816406 4.65625 -4.203125 C 4.269531 -4.585938 3.800781 -4.78125 3.25 -4.78125 Z M 3.25 -4.78125 "/></g></g></g><g fill="#231f20" fill-opacity="1"><g transform="translate(185.471784, 70.498226)"><g><path d="M 4.28125 0 L 3.265625 -1.703125 C 3.210938 -1.691406 3.128906 -1.6875 3.015625 -1.6875 L 1.6875 -1.6875 L 1.6875 0 L 0.734375 0 L 0.734375 -5.59375 L 3.015625 -5.59375 C 3.722656 -5.59375 4.273438 -5.425781 4.671875 -5.09375 C 5.066406 -4.757812 5.265625 -4.289062 5.265625 -3.6875 C 5.265625 -3.238281 5.160156 -2.859375 4.953125 -2.546875 C 4.753906 -2.242188 4.472656 -2.019531 4.109375 -1.875 L 5.359375 0 Z M 1.6875 -2.53125 L 3.015625 -2.53125 C 3.921875 -2.53125 4.375 -2.90625 4.375 -3.65625 C 4.375 -4.382812 3.921875 -4.75 3.015625 -4.75 L 1.6875 -4.75 Z M 1.6875 -2.53125 "/></g></g></g><g fill="#231f20" fill-opacity="1"><g transform="translate(197.655862, 70.498226)"><g><path d="M 4.5625 -4.75 L 2.78125 -4.75 L 2.78125 0 L 1.84375 0 L 1.84375 -4.75 L 0.078125 -4.75 L 0.078125 -5.59375 L 4.5625 -5.59375 Z M 4.5625 -4.75 "/></g></g></g><g fill="#231f20" fill-opacity="1"><g transform="translate(208.687929, 70.498226)"><g><path d="M 4.359375 -1.265625 L 1.53125 -1.265625 L 0.984375 0 L 0.015625 0 L 2.484375 -5.59375 L 3.453125 -5.59375 L 5.890625 0 L 4.890625 0 Z M 3.984375 -2.109375 L 2.9375 -4.59375 L 1.875 -2.109375 Z M 3.984375 -2.109375 "/></g></g></g><g fill="#231f20" fill-opacity="1"><g transform="translate(220.992003, 70.498226)"><g><path d="M 3.890625 -6.5 C 3.679688 -6.289062 3.414062 -6.1875 3.09375 -6.1875 C 2.769531 -6.1875 2.503906 -6.289062 2.296875 -6.5 C 2.085938 -6.71875 1.976562 -6.992188 1.96875 -7.328125 L 2.59375 -7.328125 C 2.601562 -7.171875 2.65625 -7.046875 2.75 -6.953125 C 2.84375 -6.859375 2.957031 -6.8125 3.09375 -6.8125 C 3.226562 -6.8125 3.34375 -6.859375 3.4375 -6.953125 C 3.53125 -7.046875 3.582031 -7.171875 3.59375 -7.328125 L 4.21875 -7.328125 C 4.207031 -6.992188 4.097656 -6.71875 3.890625 -6.5 Z M 4.5625 -2.75 L 5.390625 -2.75 L 5.390625 -0.6875 C 5.097656 -0.46875 4.753906 -0.289062 4.359375 -0.15625 C 3.972656 -0.0195312 3.59375 0.046875 3.21875 0.046875 C 2.382812 0.046875 1.679688 -0.222656 1.109375 -0.765625 C 0.546875 -1.316406 0.265625 -1.992188 0.265625 -2.796875 C 0.265625 -3.597656 0.550781 -4.269531 1.125 -4.8125 C 1.707031 -5.351562 2.421875 -5.625 3.265625 -5.625 C 3.660156 -5.625 4.050781 -5.550781 4.4375 -5.40625 C 4.820312 -5.269531 5.148438 -5.082031 5.421875 -4.84375 L 4.890625 -4.140625 C 4.429688 -4.566406 3.890625 -4.78125 3.265625 -4.78125 C 2.703125 -4.78125 2.222656 -4.585938 1.828125 -4.203125 C 1.429688 -3.816406 1.234375 -3.347656 1.234375 -2.796875 C 1.234375 -2.234375 1.429688 -1.757812 1.828125 -1.375 C 2.222656 -1 2.707031 -0.8125 3.28125 -0.8125 C 3.707031 -0.8125 4.132812 -0.9375 4.5625 -1.1875 Z M 4.5625 -2.75 "/></g></g></g><g fill="#231f20" fill-opacity="1"><g transform="translate(233.384089, 70.498226)"><g><path d="M 1.6875 0 L 0.734375 0 L 0.734375 -5.59375 L 1.6875 -5.59375 Z M 1.6875 0 "/></g></g></g><g fill="#231f20" fill-opacity="1"><g transform="translate(242.200135, 70.498226)"><g><path d="M 5.59375 0 L 4.65625 0 L 1.6875 -4.015625 L 1.6875 0 L 0.734375 0 L 0.734375 -5.59375 L 1.65625 -5.59375 L 4.65625 -1.578125 L 4.65625 -5.59375 L 5.59375 -5.59375 Z M 5.59375 0 "/></g></g></g><g fill="#231f20" fill-opacity="1"><g transform="translate(254.936217, 70.498226)"><g><path d="M 1.6875 0 L 0.734375 0 L 0.734375 -5.59375 L 1.6875 -5.59375 Z M 1.6875 0 "/></g></g></g><g fill="#231f20" fill-opacity="1"><g transform="translate(263.752263, 70.498226)"><g><path d="M 4.984375 -4.921875 L 1.578125 -0.84375 L 5.03125 -0.84375 L 5.03125 0 L 0.296875 0 L 0.296875 -0.6875 L 3.71875 -4.75 L 0.40625 -4.75 L 0.40625 -5.59375 L 4.984375 -5.59375 Z M 4.984375 -4.921875 "/></g></g></g></svg>